{
	"asset":{
		"generator":"Khronos glTF Blender I/O v3.6.27",
		"version":"2.0"
	},
	"extensionsUsed":[
		"KHR_materials_specular",
		"KHR_materials_ior"
	],
	"scene":0,
	"scenes":[
		{
			"name":"Scene",
			"nodes":[
				0,
				1,
				2,
				3
			]
		}
	],
	"nodes":[
		{
			"mesh":0,
			"name":"mesh_22_82.nr",
			"translation":[
				9.884162902832031,
				3.1948328018188477,
				-5.029346466064453
			]
		},
		{
			"mesh":1,
			"name":"mesh_22_83.nr",
			"translation":[
				6.65191650390625,
				2.0929360389709473,
				-4.395882606506348
			]
		},
		{
			"mesh":2,
			"name":"mesh_23_96.nr",
			"translation":[
				-0.6621184349060059,
				6.616797924041748,
				0.6999979019165039
			]
		},
		{
			"mesh":3,
			"name":"mesh_23_97.nr",
			"translation":[
				-0.6638407707214355,
				10.494157791137695,
				0.6712069511413574
			]
		}
	],
	"materials":[
		{
			"alphaMode":"BLEND",
			"doubleSided":true,
			"name":"mat_7",
			"pbrMetallicRoughness":{
				"metallicFactor":0,
				"roughnessFactor":0.5
			}
		},
		{
			"alphaMode":"BLEND",
			"doubleSided":true,
			"extensions":{
				"KHR_materials_specular":{
					"specularColorFactor":[
						0,
						0,
						0
					]
				},
				"KHR_materials_ior":{
					"ior":1.4500000476837158
				}
			},
			"name":"mat_8",
			"pbrMetallicRoughness":{
				"metallicFactor":0,
				"roughnessFactor":0.5
			}
		}
	],
	"meshes":[
		{
			"name":"mesh_22_82.nr",
			"primitives":[
				{
					"attributes":{
						"POSITION":0,
						"NORMAL":1,
						"TEXCOORD_0":2
					},
					"indices":3,
					"material":0
				}
			]
		},
		{
			"name":"mesh_22_83.nr",
			"primitives":[
				{
					"attributes":{
						"POSITION":4,
						"NORMAL":5,
						"TEXCOORD_0":6,
						"TEXCOORD_1":7,
						"TEXCOORD_2":8,
						"TEXCOORD_3":9,
						"TEXCOORD_4":10,
						"TEXCOORD_5":11,
						"TEXCOORD_6":12
					},
					"indices":13,
					"material":0
				}
			]
		},
		{
			"name":"mesh_23_96.nr",
			"primitives":[
				{
					"attributes":{
						"POSITION":14,
						"NORMAL":15,
						"TEXCOORD_0":16
					},
					"indices":17,
					"material":1
				}
			]
		},
		{
			"name":"mesh_23_97.nr",
			"primitives":[
				{
					"attributes":{
						"POSITION":18,
						"NORMAL":19,
						"TEXCOORD_0":20,
						"TEXCOORD_1":21,
						"TEXCOORD_2":22,
						"TEXCOORD_3":23,
						"TEXCOORD_4":24,
						"TEXCOORD_5":25,
						"TEXCOORD_6":26
					},
					"indices":27,
					"material":1
				}
			]
		}
	],
	"accessors":[
		{
			"bufferView":0,
			"componentType":5126,
			"count":57,
			"max":[
				-8.82543659210205,
				7.353094100952148,
				7.30280876159668
			],
			"min":[
				-12.278023719787598,
				-3.121342420578003,
				4.458377361297607
			],
			"type":"VEC3"
		},
		{
			"bufferView":1,
			"componentType":5126,
			"count":57,
			"type":"VEC3"
		},
		{
			"bufferView":2,
			"componentType":5126,
			"count":57,
			"type":"VEC2"
		},
		{
			"bufferView":3,
			"componentType":5123,
			"count":189,
			"type":"SCALAR"
		},
		{
			"bufferView":4,
			"componentType":5126,
			"count":26,
			"max":[
				-6.104796886444092,
				-0.6768829822540283,
				6.635175704956055
			],
			"min":[
				-9.003436088562012,
				-2.0194454193115234,
				3.824913501739502
			],
			"type":"VEC3"
		},
		{
			"bufferView":5,
			"componentType":5126,
			"count":26,
			"type":"VEC3"
		},
		{
			"bufferView":6,
			"componentType":5126,
			"count":26,
			"type":"VEC2"
		},
		{
			"bufferView":7,
			"componentType":5126,
			"count":26,
			"type":"VEC2"
		},
		{
			"bufferView":8,
			"componentType":5126,
			"count":26,
			"type":"VEC2"
		},
		{
			"bufferView":9,
			"componentType":5126,
			"count":26,
			"type":"VEC2"
		},
		{
			"bufferView":10,
			"componentType":5126,
			"count":26,
			"type":"VEC2"
		},
		{
			"bufferView":11,
			"componentType":5126,
			"count":26,
			"type":"VEC2"
		},
		{
			"bufferView":12,
			"componentType":5126,
			"count":26,
			"type":"VEC2"
		},
		{
			"bufferView":13,
			"componentType":5123,
			"count":27,
			"type":"SCALAR"
		},
		{
			"bufferView":14,
			"componentType":5126,
			"count":137,
			"max":[
				3.942798137664795,
				4.327199935913086,
				3.7659811973571777
			],
			"min":[
				-3.8935415744781494,
				-5.448669910430908,
				-3.4333035945892334
			],
			"type":"VEC3"
		},
		{
			"bufferView":15,
			"componentType":5126,
			"count":137,
			"type":"VEC3"
		},
		{
			"bufferView":16,
			"componentType":5126,
			"count":137,
			"type":"VEC2"
		},
		{
			"bufferView":17,
			"componentType":5123,
			"count":519,
			"type":"SCALAR"
		},
		{
			"bufferView":18,
			"componentType":5126,
			"count":17,
			"max":[
				0.6372387409210205,
				0.44984114170074463,
				0.5875688195228577
			],
			"min":[
				-0.5814807415008545,
				-0.4234635829925537,
				-0.6298912167549133
			],
			"type":"VEC3"
		},
		{
			"bufferView":19,
			"componentType":5126,
			"count":17,
			"type":"VEC3"
		},
		{
			"bufferView":20,
			"componentType":5126,
			"count":17,
			"type":"VEC2"
		},
		{
			"bufferView":21,
			"componentType":5126,
			"count":17,
			"type":"VEC2"
		},
		{
			"bufferView":22,
			"componentType":5126,
			"count":17,
			"type":"VEC2"
		},
		{
			"bufferView":23,
			"componentType":5126,
			"count":17,
			"type":"VEC2"
		},
		{
			"bufferView":24,
			"componentType":5126,
			"count":17,
			"type":"VEC2"
		},
		{
			"bufferView":25,
			"componentType":5126,
			"count":17,
			"type":"VEC2"
		},
		{
			"bufferView":26,
			"componentType":5126,
			"count":17,
			"type":"VEC2"
		},
		{
			"bufferView":27,
			"componentType":5123,
			"count":21,
			"type":"SCALAR"
		}
	],
	"bufferViews":[
		{
			"buffer":0,
			"byteLength":684,
			"byteOffset":0,
			"target":34962
		},
		{
			"buffer":0,
			"byteLength":684,
			"byteOffset":684,
			"target":34962
		},
		{
			"buffer":0,
			"byteLength":456,
			"byteOffset":1368,
			"target":34962
		},
		{
			"buffer":0,
			"byteLength":378,
			"byteOffset":1824,
			"target":34963
		},
		{
			"buffer":0,
			"byteLength":312,
			"byteOffset":2204,
			"target":34962
		},
		{
			"buffer":0,
			"byteLength":312,
			"byteOffset":2516,
			"target":34962
		},
		{
			"buffer":0,
			"byteLength":208,
			"byteOffset":2828,
			"target":34962
		},
		{
			"buffer":0,
			"byteLength":208,
			"byteOffset":3036,
			"target":34962
		},
		{
			"buffer":0,
			"byteLength":208,
			"byteOffset":3244,
			"target":34962
		},
		{
			"buffer":0,
			"byteLength":208,
			"byteOffset":3452,
			"target":34962
		},
		{
			"buffer":0,
			"byteLength":208,
			"byteOffset":3660,
			"target":34962
		},
		{
			"buffer":0,
			"byteLength":208,
			"byteOffset":3868,
			"target":34962
		},
		{
			"buffer":0,
			"byteLength":208,
			"byteOffset":4076,
			"target":34962
		},
		{
			"buffer":0,
			"byteLength":54,
			"byteOffset":4284,
			"target":34963
		},
		{
			"buffer":0,
			"byteLength":1644,
			"byteOffset":4340,
			"target":34962
		},
		{
			"buffer":0,
			"byteLength":1644,
			"byteOffset":5984,
			"target":34962
		},
		{
			"buffer":0,
			"byteLength":1096,
			"byteOffset":7628,
			"target":34962
		},
		{
			"buffer":0,
			"byteLength":1038,
			"byteOffset":8724,
			"target":34963
		},
		{
			"buffer":0,
			"byteLength":204,
			"byteOffset":9764,
			"target":34962
		},
		{
			"buffer":0,
			"byteLength":204,
			"byteOffset":9968,
			"target":34962
		},
		{
			"buffer":0,
			"byteLength":136,
			"byteOffset":10172,
			"target":34962
		},
		{
			"buffer":0,
			"byteLength":136,
			"byteOffset":10308,
			"target":34962
		},
		{
			"buffer":0,
			"byteLength":136,
			"byteOffset":10444,
			"target":34962
		},
		{
			"buffer":0,
			"byteLength":136,
			"byteOffset":10580,
			"target":34962
		},
		{
			"buffer":0,
			"byteLength":136,
			"byteOffset":10716,
			"target":34962
		},
		{
			"buffer":0,
			"byteLength":136,
			"byteOffset":10852,
			"target":34962
		},
		{
			"buffer":0,
			"byteLength":136,
			"byteOffset":10988,
			"target":34962
		},
		{
			"buffer":0,
			"byteLength":42,
			"byteOffset":11124,
			"target":34963
		}
	],
	"buffers":[
		{
			"byteLength":11168,
			"uri":"data:application/octet-stream;base64,"
		}
	]
}
